<svg width="40" height="42" viewBox="0 0 40 42" fill="none" xmlns="http://www.w3.org/2000/svg">
<g clip-path="url(#clip0_102_4)" filter="url(#filter0_d_102_4)">
<path d="M20.1 11C16.2 11 13.1 14.1 13.1 18C13.1 21.9 16.2 25 20.1 25C24 25 27.1 21.9 27.1 18C27.1 14.1 24 11 20.1 11ZM20.1 23C17.3 23 15.1 20.8 15.1 18C15.1 15.2 17.3 13 20.1 13C22.9 13 25.1 15.2 25.1 18C25.1 20.8 22.9 23 20.1 23Z" fill="white"/>
<path d="M34.8 14.7L32 13.8L31.4 12.3L32.8 9.7C33.1 9.1 33 8.3 32.5 7.8L30.1 5.4C29.6 4.9 28.8 4.8 28.2 5.1L25.6 6.5L24.1 5.9L23.2 3.1C23 2.5 22.4 2 21.7 2H18.3C17.6 2 17 2.5 16.9 3.2L16 6C15.4 6.1 14.9 6.3 14.4 6.6L11.8 5.2C11.2 4.9 10.4 5 9.9 5.5L7.5 7.9C7 8.4 6.9 9.2 7.2 9.8L8.5 12.3C8.3 12.8 8.1 13.4 7.9 13.9L5.1 14.8C4.5 15 4 15.6 4 16.3V19.7C4 20.4 4.5 21 5.2 21.2L8 22.1L8.6 23.6L7.2 26.2C6.9 26.8 7 27.6 7.5 28.1L9.9 30.5C10.4 31 11.2 31.1 11.8 30.8L14.4 29.4L15.9 30L16.8 32.9C17 33.5 17.6 34 18.3 34H21.7C22.4 34 23 33.5 23.2 32.9L24.1 30L25.6 29.4L28.2 30.8C28.8 31.1 29.6 31 30.1 30.5L32.5 28.1C33 27.6 33.1 26.8 32.8 26.2L31.4 23.6L32 22.1L34.9 21.2C35.5 21 36 20.4 36 19.7V16.3C36 15.6 35.5 14.9 34.8 14.7ZM34 19.4L30.4 20.5L30.3 21L29.4 23.1L29.1 23.6L30.9 26.9L28.9 28.9L25.6 27.1L25.1 27.4C24.4 27.8 23.7 28.1 23 28.3L22.5 28.4L21.4 32H18.6L17.5 28.4L17 28.3L14.9 27.4L14.4 27.1L11.1 28.9L9.1 26.9L10.9 23.6L10.6 23.1C10.2 22.4 9.9 21.7 9.7 21L9.6 20.5L6 19.4V16.6L9.4 15.6L9.6 15.1C9.8 14.3 10.1 13.6 10.5 12.9L10.8 12.4L9.1 9.1L11.1 7.1L14.3 8.9L14.8 8.6C15.5 8.2 16.2 7.9 17 7.7L17.5 7.5L18.6 4H21.4L22.5 7.5L23 7.7C23.7 7.9 24.4 8.2 25.1 8.6L25.6 8.9L28.9 7.1L30.9 9.1L29.1 12.4L29.4 12.9C29.8 13.6 30.1 14.3 30.3 15L30.4 15.5L34 16.6V19.4Z" fill="white"/>
</g>
<defs>
<filter id="filter0_d_102_4" x="-2" y="0" width="44" height="44" filterUnits="userSpaceOnUse" color-interpolation-filters="sRGB">
<feFlood flood-opacity="0" result="BackgroundImageFix"/>
<feColorMatrix in="SourceAlpha" type="matrix" values="0 0 0 0 0 0 0 0 0 0 0 0 0 0 0 0 0 0 127 0" result="hardAlpha"/>
<feOffset dy="4"/>
<feGaussianBlur stdDeviation="2"/>
<feComposite in2="hardAlpha" operator="out"/>
<feColorMatrix type="matrix" values="0 0 0 0 0 0 0 0 0 0 0 0 0 0 0 0 0 0 0.25 0"/>
<feBlend mode="normal" in2="BackgroundImageFix" result="effect1_dropShadow_102_4"/>
<feBlend mode="normal" in="SourceGraphic" in2="effect1_dropShadow_102_4" result="shape"/>
</filter>
<clipPath id="clip0_102_4">
<rect width="36" height="36" fill="white" transform="translate(2)"/>
</clipPath>
</defs>
</svg>
