<svg width="22" height="22" viewBox="0 0 22 22" fill="none" xmlns="http://www.w3.org/2000/svg">
<path d="M17 9H12" stroke="white" stroke-width="1.5" stroke-linecap="round"/>
<path d="M9 2H15.5C15.964 2 16.197 2 16.392 2.026C17.0465 2.11232 17.6543 2.41211 18.1211 2.87893C18.5879 3.34574 18.8877 3.9535 18.974 4.608C19 4.803 19 5.036 19 5.5" stroke="white" stroke-width="1.5"/>
<path d="M1 5.95C1 5.067 1 4.626 1.07 4.258C1.21922 3.46784 1.60314 2.741 2.17165 2.17231C2.74017 1.60361 3.46689 1.21947 4.257 1.07C4.626 1 5.068 1 5.95 1C6.336 1 6.53 1 6.716 1.017C7.51705 1.09223 8.27679 1.40728 8.896 1.921C9.04 2.04 9.176 2.176 9.45 2.45L10 3C10.816 3.816 11.224 4.224 11.712 4.495C11.9802 4.64449 12.2648 4.7626 12.56 4.847C13.098 5 13.675 5 14.828 5H15.202C17.834 5 19.151 5 20.006 5.77C20.085 5.84 20.16 5.915 20.23 5.994C21 6.849 21 8.166 21 10.798V13C21 16.771 21 18.657 19.828 19.828C18.657 21 16.771 21 13 21H9C5.229 21 3.343 21 2.172 19.828C1 18.657 1 16.771 1 13V5.95Z" stroke="white" stroke-width="1.5"/>
</svg>
